<svg width="1420" height="474" viewBox="0 0 1420 474" fill="none" xmlns="http://www.w3.org/2000/svg">
<g clip-path="url(#clip0_100_3)">
<rect width="1420" height="474" fill="white"/>
<path d="M757.825 251.613C753.641 252.397 755.317 259.946 755.317 263.04C755.317 263.854 755.345 266.275 755.177 265.478C753.712 258.517 751.445 251.712 749.812 244.785C748.568 239.507 747.851 234.014 746.537 228.759C745.634 225.144 747.741 236.117 748.488 239.768C749.358 244.013 752.553 265.484 754.899 250.777C755.96 244.125 756.761 237.44 757.755 230.78C757.933 229.59 758.013 228.371 758.382 227.226C759.032 225.213 759.906 227.526 760.055 228.062C762.669 237.528 763.337 248.165 764.653 257.814C766.002 267.707 768.67 279.104 767.789 289.238C767.682 290.465 765.717 287.713 765.211 286.59C759.636 274.233 757.086 260.701 754.062 247.572C752.542 240.969 751.071 234.333 749.324 227.784C749.096 226.928 750.873 241.419 751.066 242.694C752.219 250.278 753.538 257.836 754.759 265.409C754.895 266.248 755.025 269.855 755.944 270.774C757.054 271.884 756.522 267.675 756.571 266.105C756.803 258.663 757.111 250.864 759.776 243.809C763.091 235.033 765.565 259.954 765.629 260.531C766.319 266.799 766.722 273.181 767.719 279.413C768.695 285.514 767.831 267.057 767.928 260.88C767.948 259.636 769.707 229.966 770.924 243.182C771.776 252.433 771.533 261.877 770.785 271.122C770.405 275.808 769.768 280.719 768.694 285.336C768.483 286.245 768.772 283.461 768.973 282.549C770.801 274.272 773.026 266.058 775.732 258.023C778.783 248.961 779.192 251.438 777.683 258.232C776.807 262.173 771.433 283.334 771.621 268.056C771.715 260.345 772.226 252.665 773.572 245.063C773.596 244.927 776.475 235.978 776.08 234.891C775.167 232.381 772.597 238.941 770.924 241.022C768.226 244.378 765.578 247.892 762.354 250.777C758.938 253.833 766.238 241.249 767.649 239.838C771.096 236.391 769.97 241.119 769.112 242.834C765.062 250.935 758.287 257.862 751.275 263.458C750.334 264.209 747.163 265.93 748.279 265.478C756.197 262.274 764.607 260.076 772.875 258.023C777.804 256.799 792.852 254.526 787.786 254.888C780.518 255.407 773.264 255.443 765.977 255.306C763.724 255.263 761.467 255.252 759.218 255.097C756.181 254.886 756.172 254.548 759.079 254.121C766.193 253.077 773.501 252.946 780.679 252.867C781.333 252.86 783.268 252.934 782.63 253.076C776.179 254.509 769.721 255.998 763.329 257.675C754.197 260.07 766.987 258.134 767.789 259.416C769.495 262.147 749.402 266.238 748.07 267.36C746.38 268.783 752.511 267.379 754.69 267.011C761.523 265.857 768.955 265.042 775.523 262.761C778.796 261.624 768.665 261.717 765.211 261.437C753.912 260.521 770.762 255.962 772.736 255.584C779.037 254.38 774.792 257.561 773.711 260.113C773.333 261.005 776.652 262.442 776.219 261.576C775.647 260.432 751.511 253.168 759.079 247.99C762.362 245.743 763.148 258.042 766.604 259.138C778.003 262.752 790.91 263.064 802.696 264.294C807.074 264.751 812.918 262.635 815.795 265.966C817.284 267.69 811.361 267.071 809.246 267.917" stroke="white" stroke-width="3" stroke-linecap="round"/>
<path d="M599.886 471.522C611.464 472.457 646.31 473.256 634.722 472.443C617.524 471.236 566.013 467.955 583.245 467.433C602.799 466.841 661.002 470.533 641.92 466.224C631.263 463.818 620.087 463.198 609.272 461.79C605.527 461.303 601.787 460.782 598.043 460.293C595.66 459.982 595.949 460.121 600.001 460.121C618.504 460.121 637.006 460.121 655.509 460.121C657.159 460.121 658.81 460.121 660.461 460.121C661.248 460.121 658.887 460.121 658.1 460.121C650.768 460.121 643.436 460.121 636.104 460.121C623.701 460.121 611.134 459.588 598.734 460.178C594.492 460.38 606.968 462.338 611.172 462.942C627.546 465.294 644.003 467.263 660.288 470.197C660.772 470.284 667.438 471.143 662.706 471.406C659.396 471.59 645.281 471.522 644.223 471.522C629.29 471.522 614.358 471.522 599.425 471.522C598.926 471.522 597.429 471.522 597.928 471.522C598.945 471.522 599.963 471.522 600.98 471.522C607.05 471.522 610.452 471.509 616.93 471.579C627.643 471.695 638.352 471.963 649.06 472.328C659.659 472.688 651.028 472.59 646.872 472.558C632.232 472.445 617.604 471.92 602.995 470.946C601.95 470.876 598.838 470.5 599.886 470.485C605.912 470.397 611.939 470.485 617.966 470.485C635.356 470.485 652.745 470.485 670.134 470.485C682.284 470.485 669.618 470.529 665.643 470.485C647.369 470.283 628.669 470.068 610.596 467.03C609.632 466.868 606.913 466.383 607.832 466.051C610.004 465.267 612.433 465.602 614.742 465.533C620.809 465.352 644.193 465.312 649.52 465.303C657.046 465.289 679.515 466.079 672.092 464.842C657.607 462.428 642.962 460.953 628.446 458.739C622.081 457.768 604.149 453.618 610.366 451.944C622.16 448.769 636.386 450.793 648.484 450.793C657.935 450.793 652.35 450.847 646.411 451.023C646.036 451.034 627.926 451.574 627.409 451.599C625.417 451.694 620.248 451.227 621.536 452.75C625.311 457.212 636.226 459.42 641.459 461.042C652.288 464.397 663.51 466.75 674.51 469.449" stroke="white" stroke-width="3" stroke-linecap="round"/>
<path d="M662.439 165L674.744 93.9062L692.273 93.9551C697.449 94.0853 701.811 95.4362 705.359 98.0078C708.94 100.579 711.495 104.144 713.025 108.701C714.588 113.258 715.011 118.353 714.295 123.984L712.732 134.385C711.3 143.955 707.833 151.442 702.332 156.846C696.863 162.249 689.979 164.967 681.678 165H662.439ZM686.707 105.869L678.504 153.086L681.971 153.184C686.821 153.184 690.581 151.784 693.25 148.984C695.919 146.152 697.71 141.611 698.621 135.361L700.281 123.838C700.737 120.094 700.916 117.36 700.818 115.635C700.656 112.38 699.826 109.971 698.328 108.408C696.831 106.846 694.617 106.016 691.688 105.918L686.707 105.869ZM737.732 154.6C741.443 154.697 743.738 152.077 744.617 146.738L757.264 146.689C756.71 152.549 754.546 157.269 750.77 160.85C746.993 164.43 742.387 166.156 736.951 166.025C732.036 165.895 728.113 164.43 725.184 161.631C722.286 158.799 720.561 154.86 720.008 149.814C719.52 145.713 719.747 140.765 720.691 134.971C721.668 129.176 723.458 124.342 726.062 120.469C730.327 114.089 736.398 110.996 744.275 111.191C749.614 111.354 753.683 113.291 756.482 117.002C759.282 120.68 760.535 125.661 760.242 131.943L747.547 131.895L747.596 128.867C747.465 124.831 745.87 122.731 742.811 122.568C738.025 122.308 735.177 126.019 734.266 133.701L733.338 142.539C732.947 145.176 732.817 147.373 732.947 149.131C733.175 152.679 734.77 154.502 737.732 154.6ZM816.053 93.9062L820.203 145.029L842.029 93.9062H860.486L848.133 165H834.07L837.488 145.322L843.641 117.246L821.863 165H812.342L806.971 115.635L802.918 146.25L799.695 165H785.682L797.986 93.9062H816.053ZM873.182 165H859.656L868.836 112.168H882.361L873.182 165ZM870.594 98.7402C870.594 96.4941 871.294 94.6712 872.693 93.2715C874.126 91.8392 875.867 91.123 877.918 91.123C879.936 91.0579 881.645 91.7253 883.045 93.125C884.477 94.4922 885.193 96.2012 885.193 98.252C885.193 100.531 884.477 102.386 883.045 103.818C881.645 105.218 879.92 105.918 877.869 105.918C875.786 105.983 874.044 105.332 872.645 103.965C871.277 102.565 870.594 100.824 870.594 98.7402ZM907.459 111.143C911.333 111.273 914.474 113.079 916.883 116.562L921.863 90H935.438L922.449 165H910.34L911.072 159.629C907.687 163.926 903.96 166.074 899.891 166.074C895.366 166.009 891.948 164.268 889.637 160.85C887.358 157.432 886.268 152.516 886.365 146.104L886.512 142.979C887.26 132.236 889.376 124.212 892.859 118.906C896.375 113.568 901.242 110.98 907.459 111.143ZM899.793 145.908C899.63 148.74 899.956 150.889 900.77 152.354C901.616 153.786 902.902 154.502 904.627 154.502C906.938 154.567 909.152 153.346 911.268 150.84L915.516 126.572C914.311 124.098 912.57 122.812 910.291 122.715C905.473 122.454 902.446 125.938 901.209 133.164L900.672 136.875L899.793 145.908ZM973.914 141.709L983.631 112.168H996.814L977.039 165H965.857L963.953 134.629L951.453 165H940.174L938.709 112.168H951.404L950.77 141.514L962.635 112.168H972.254L973.914 141.709ZM1019.71 165C1019.45 163.893 1019.32 162.526 1019.32 160.898C1016.33 164.316 1012.91 166.025 1009.07 166.025C1005 165.96 1001.73 164.463 999.256 161.533C996.814 158.604 995.691 154.958 995.887 150.596C996.18 144.997 998.361 140.618 1002.43 137.461C1006.5 134.271 1011.97 132.676 1018.84 132.676H1022.79L1023.43 128.379L1023.57 126.182C1023.57 123.35 1022.43 121.934 1020.15 121.934C1017 121.836 1015.08 123.854 1014.39 127.988L1000.96 128.086C1001.26 123.073 1003.34 118.988 1007.21 115.83C1011.09 112.64 1015.81 111.077 1021.38 111.143C1026.62 111.273 1030.62 112.933 1033.39 116.123C1036.19 119.281 1037.33 123.464 1036.8 128.672L1032.51 155.527L1032.31 158.115C1032.18 160.394 1032.41 162.396 1033 164.121L1032.95 165H1019.71ZM1012.78 155.234C1015.16 155.299 1017.37 154.258 1019.42 152.109L1021.81 140.928H1018.88C1016.28 141.058 1014.18 141.937 1012.59 143.564C1010.99 145.192 1010.03 147.243 1009.71 149.717L1009.66 151.572C1009.66 152.614 1009.92 153.477 1010.44 154.16C1010.99 154.844 1011.77 155.202 1012.78 155.234ZM1060.29 141.758L1072.25 112.168H1087L1059.75 172.959C1057.77 177.712 1055.46 181.146 1052.82 183.262C1050.18 185.41 1047.14 186.484 1043.69 186.484C1042.29 186.484 1040.3 186.143 1037.73 185.459L1038.9 174.668L1040.37 174.766C1044.05 174.831 1046.75 173.187 1048.47 169.834L1050.72 164.805L1045.25 112.168H1059.36L1060.29 141.758Z" fill="#070325"/>
<path d="M585.88 248H581.046L561.227 193.42L551.734 248H546.681L557.799 184.016H562.677L582.54 238.684L592.032 184.016H596.998L585.88 248ZM627.788 199.528C632.095 199.646 635.449 201.228 637.851 204.274C640.254 207.292 641.499 211.423 641.587 216.667C641.645 219.333 641.352 222.761 640.708 226.95C639.653 233.923 637.353 239.372 633.808 243.298C630.293 247.194 625.884 249.069 620.581 248.923C616.626 248.806 613.447 247.443 611.045 244.836C608.672 242.229 607.265 238.479 606.826 233.586L606.738 231.828C606.65 229.455 606.943 226.013 607.617 221.501C608.32 216.96 609.565 213.034 611.352 209.724C613.169 206.413 615.454 203.864 618.208 202.077C620.991 200.29 624.184 199.44 627.788 199.528ZM611.616 230.51C611.528 234.846 612.275 238.215 613.857 240.617C615.469 243.02 617.827 244.279 620.932 244.396C624.741 244.543 627.934 243.166 630.513 240.266C633.12 237.336 634.878 233.029 635.786 227.346L636.533 221.765L636.753 218.029C636.841 213.781 636.079 210.427 634.468 207.966C632.886 205.505 630.542 204.216 627.436 204.099C623.511 203.952 620.215 205.52 617.549 208.801C614.883 212.082 613.169 216.623 612.407 222.424L611.704 228.005L611.616 230.51ZM683.523 248H678.645L690.378 180.5H695.256L683.523 248ZM724.816 199.528C729.122 199.646 732.477 201.228 734.879 204.274C737.281 207.292 738.527 211.423 738.614 216.667C738.673 219.333 738.38 222.761 737.736 226.95C736.681 233.923 734.381 239.372 730.836 243.298C727.321 247.194 722.911 249.069 717.609 248.923C713.654 248.806 710.475 247.443 708.072 244.836C705.699 242.229 704.293 238.479 703.854 233.586L703.766 231.828C703.678 229.455 703.971 226.013 704.645 221.501C705.348 216.96 706.593 213.034 708.38 209.724C710.196 206.413 712.482 203.864 715.236 202.077C718.019 200.29 721.212 199.44 724.816 199.528ZM708.644 230.51C708.556 234.846 709.303 238.215 710.885 240.617C712.496 243.02 714.855 244.279 717.96 244.396C721.769 244.543 724.962 243.166 727.54 240.266C730.148 237.336 731.905 233.029 732.814 227.346L733.561 221.765L733.78 218.029C733.868 213.781 733.107 210.427 731.495 207.966C729.913 205.505 727.57 204.216 724.464 204.099C720.538 203.952 717.242 205.52 714.576 208.801C711.91 212.082 710.196 216.623 709.435 222.424L708.732 228.005L708.644 230.51ZM788.724 210.075L778.969 266.281H771.366L782.792 200.451H789.691L788.724 210.075ZM812.279 222.072L811.708 226.467C811.386 229.045 810.829 231.682 810.038 234.377C809.276 237.043 808.192 239.489 806.786 241.716C805.409 243.942 803.637 245.729 801.469 247.077C799.301 248.396 796.649 248.996 793.514 248.879C790.819 248.791 788.622 248.088 786.923 246.77C785.253 245.451 783.978 243.752 783.099 241.672C782.25 239.592 781.693 237.365 781.429 234.992C781.166 232.59 781.122 230.29 781.298 228.093L782.221 221.325C782.631 218.923 783.261 216.447 784.11 213.898C784.96 211.32 786.088 208.933 787.494 206.735C788.9 204.538 790.643 202.766 792.723 201.418C794.833 200.07 797.338 199.44 800.238 199.528C803.314 199.616 805.731 200.378 807.489 201.813C809.247 203.22 810.507 205.051 811.268 207.307C812.059 209.533 812.499 211.95 812.587 214.558C812.675 217.136 812.572 219.641 812.279 222.072ZM804.193 226.511L804.721 222.028C804.896 220.476 804.999 218.82 805.028 217.062C805.087 215.275 804.911 213.576 804.501 211.965C804.12 210.354 803.373 209.035 802.26 208.01C801.176 206.955 799.594 206.398 797.513 206.34C795.931 206.311 794.467 206.633 793.119 207.307C791.801 207.98 790.614 208.889 789.559 210.031C788.505 211.174 787.611 212.448 786.879 213.854C786.176 215.231 785.648 216.623 785.297 218.029L783.143 231.433C783.114 233.132 783.422 234.802 784.066 236.442C784.711 238.054 785.648 239.401 786.879 240.485C788.138 241.569 789.691 242.155 791.537 242.243C793.763 242.36 795.624 241.95 797.118 241.013C798.641 240.075 799.872 238.83 800.809 237.277C801.776 235.695 802.523 233.967 803.051 232.092C803.578 230.188 803.959 228.327 804.193 226.511ZM839.641 248.879C836.565 248.82 834.002 248.205 831.951 247.033C829.9 245.861 828.303 244.279 827.161 242.287C826.018 240.295 825.256 238.039 824.876 235.52C824.524 233 824.495 230.378 824.788 227.653L825.447 222.292C825.798 219.479 826.458 216.711 827.424 213.986C828.391 211.262 829.695 208.801 831.336 206.604C832.976 204.377 834.998 202.619 837.4 201.33C839.802 200.041 842.615 199.455 845.837 199.572C849.031 199.66 851.565 200.378 853.44 201.726C855.315 203.073 856.692 204.831 857.571 206.999C858.45 209.167 858.948 211.555 859.065 214.162C859.212 216.77 859.124 219.377 858.801 221.984L858.142 226.511H829.27L830.457 219.875L851.462 219.919L851.638 218.732C851.873 216.945 851.917 215.114 851.77 213.239C851.624 211.335 851.067 209.724 850.1 208.405C849.133 207.058 847.551 206.325 845.354 206.208C843.098 206.091 841.223 206.516 839.729 207.482C838.264 208.449 837.078 209.753 836.17 211.394C835.261 213.034 834.558 214.821 834.06 216.755C833.591 218.659 833.254 220.505 833.049 222.292L832.39 227.697C832.214 229.309 832.156 230.964 832.214 232.663C832.273 234.333 832.551 235.886 833.049 237.321C833.577 238.757 834.412 239.929 835.554 240.837C836.726 241.716 838.337 242.185 840.388 242.243C842.673 242.302 844.724 241.833 846.541 240.837C848.386 239.841 850.071 238.522 851.594 236.882L855.286 241.848C854.026 243.459 852.561 244.792 850.891 245.847C849.251 246.901 847.478 247.678 845.574 248.176C843.67 248.674 841.692 248.908 839.641 248.879ZM882.472 211.086L876.056 248H868.454L876.715 200.451H883.878L882.472 211.086ZM878.956 222.6L876.188 222.468C876.51 219.978 877.067 217.385 877.858 214.689C878.678 211.965 879.806 209.445 881.242 207.131C882.677 204.816 884.479 202.956 886.647 201.55C888.844 200.114 891.481 199.44 894.557 199.528C896.93 199.616 898.834 200.188 900.27 201.242C901.735 202.297 902.804 203.674 903.478 205.373C904.181 207.043 904.606 208.889 904.752 210.91C904.899 212.902 904.87 214.88 904.664 216.843L899.479 248H891.876L897.106 216.711C897.252 215.188 897.267 213.649 897.15 212.097C897.062 210.515 896.622 209.182 895.831 208.098C895.04 206.984 893.678 206.398 891.745 206.34C889.723 206.281 887.951 206.779 886.427 207.834C884.933 208.889 883.673 210.266 882.648 211.965C881.622 213.635 880.802 215.422 880.187 217.326C879.601 219.201 879.191 220.959 878.956 222.6ZM940.288 235.476C940.493 234.011 940.23 232.78 939.497 231.784C938.794 230.759 937.857 229.895 936.685 229.191C935.542 228.488 934.414 227.858 933.301 227.302C931.778 226.54 930.298 225.749 928.862 224.929C927.456 224.108 926.196 223.171 925.083 222.116C923.97 221.062 923.106 219.831 922.49 218.425C921.875 217.019 921.626 215.349 921.743 213.415C921.861 211.306 922.373 209.387 923.281 207.658C924.19 205.93 925.391 204.465 926.885 203.264C928.379 202.033 930.064 201.096 931.939 200.451C933.814 199.807 935.777 199.514 937.827 199.572C940.669 199.631 943.101 200.29 945.122 201.55C947.173 202.78 948.711 204.479 949.737 206.647C950.791 208.786 951.26 211.247 951.143 214.03L943.628 213.986C943.687 212.639 943.496 211.394 943.057 210.251C942.647 209.079 941.973 208.142 941.035 207.438C940.098 206.706 938.882 206.325 937.388 206.296C935.982 206.296 934.693 206.574 933.521 207.131C932.349 207.688 931.382 208.479 930.62 209.504C929.888 210.529 929.419 211.745 929.214 213.151C929.068 214.177 929.155 215.07 929.478 215.832C929.829 216.564 930.327 217.209 930.972 217.766C931.616 218.322 932.334 218.82 933.125 219.26C933.945 219.67 934.751 220.065 935.542 220.446C937.652 221.472 939.673 222.585 941.607 223.786C943.54 224.987 945.093 226.467 946.265 228.225C947.466 229.953 947.993 232.165 947.847 234.86C947.7 237.116 947.158 239.123 946.221 240.881C945.283 242.639 944.038 244.118 942.486 245.319C940.962 246.521 939.219 247.429 937.256 248.044C935.322 248.659 933.272 248.938 931.104 248.879C928.174 248.82 925.596 248.146 923.369 246.857C921.172 245.568 919.473 243.796 918.272 241.54C917.1 239.284 916.572 236.677 916.69 233.718L924.336 233.762C924.278 235.373 924.483 236.809 924.951 238.068C925.42 239.328 926.182 240.324 927.237 241.057C928.32 241.76 929.727 242.126 931.455 242.155C932.891 242.155 934.238 241.921 935.498 241.452C936.758 240.954 937.813 240.222 938.662 239.255C939.541 238.259 940.083 236.999 940.288 235.476ZM977.538 248.879C974.462 248.82 971.898 248.205 969.848 247.033C967.797 245.861 966.2 244.279 965.058 242.287C963.915 240.295 963.153 238.039 962.772 235.52C962.421 233 962.392 230.378 962.685 227.653L963.344 222.292C963.695 219.479 964.354 216.711 965.321 213.986C966.288 211.262 967.592 208.801 969.232 206.604C970.873 204.377 972.895 202.619 975.297 201.33C977.699 200.041 980.512 199.455 983.734 199.572C986.928 199.66 989.462 200.378 991.337 201.726C993.212 203.073 994.589 204.831 995.468 206.999C996.347 209.167 996.845 211.555 996.962 214.162C997.108 216.77 997.021 219.377 996.698 221.984L996.039 226.511H967.167L968.354 219.875L989.359 219.919L989.535 218.732C989.77 216.945 989.813 215.114 989.667 213.239C989.521 211.335 988.964 209.724 987.997 208.405C987.03 207.058 985.448 206.325 983.251 206.208C980.995 206.091 979.12 206.516 977.626 207.482C976.161 208.449 974.975 209.753 974.066 211.394C973.158 213.034 972.455 214.821 971.957 216.755C971.488 218.659 971.151 220.505 970.946 222.292L970.287 227.697C970.111 229.309 970.053 230.964 970.111 232.663C970.17 234.333 970.448 235.886 970.946 237.321C971.474 238.757 972.309 239.929 973.451 240.837C974.623 241.716 976.234 242.185 978.285 242.243C980.57 242.302 982.621 241.833 984.438 240.837C986.283 239.841 987.968 238.522 989.491 236.882L993.183 241.848C991.923 243.459 990.458 244.792 988.788 245.847C987.147 246.901 985.375 247.678 983.471 248.176C981.566 248.674 979.589 248.908 977.538 248.879ZM1030.96 235.476C1031.16 234.011 1030.9 232.78 1030.17 231.784C1029.47 230.759 1028.53 229.895 1027.36 229.191C1026.21 228.488 1025.09 227.858 1023.97 227.302C1022.45 226.54 1020.97 225.749 1019.53 224.929C1018.13 224.108 1016.87 223.171 1015.75 222.116C1014.64 221.062 1013.78 219.831 1013.16 218.425C1012.55 217.019 1012.3 215.349 1012.41 213.415C1012.53 211.306 1013.04 209.387 1013.95 207.658C1014.86 205.93 1016.06 204.465 1017.56 203.264C1019.05 202.033 1020.74 201.096 1022.61 200.451C1024.49 199.807 1026.45 199.514 1028.5 199.572C1031.34 199.631 1033.77 200.29 1035.79 201.55C1037.84 202.78 1039.38 204.479 1040.41 206.647C1041.46 208.786 1041.93 211.247 1041.81 214.03L1034.3 213.986C1034.36 212.639 1034.17 211.394 1033.73 210.251C1033.32 209.079 1032.64 208.142 1031.71 207.438C1030.77 206.706 1029.55 206.325 1028.06 206.296C1026.65 206.296 1025.36 206.574 1024.19 207.131C1023.02 207.688 1022.05 208.479 1021.29 209.504C1020.56 210.529 1020.09 211.745 1019.89 213.151C1019.74 214.177 1019.83 215.07 1020.15 215.832C1020.5 216.564 1021 217.209 1021.64 217.766C1022.29 218.322 1023.01 218.82 1023.8 219.26C1024.62 219.67 1025.42 220.065 1026.21 220.446C1028.32 221.472 1030.34 222.585 1032.28 223.786C1034.21 224.987 1035.76 226.467 1036.94 228.225C1038.14 229.953 1038.66 232.165 1038.52 234.86C1038.37 237.116 1037.83 239.123 1036.89 240.881C1035.95 242.639 1034.71 244.118 1033.16 245.319C1031.63 246.521 1029.89 247.429 1027.93 248.044C1025.99 248.659 1023.94 248.938 1021.78 248.879C1018.85 248.82 1016.27 248.146 1014.04 246.857C1011.84 245.568 1010.14 243.796 1008.94 241.54C1007.77 239.284 1007.24 236.677 1007.36 233.718L1015.01 233.762C1014.95 235.373 1015.15 236.809 1015.62 238.068C1016.09 239.328 1016.85 240.324 1017.91 241.057C1018.99 241.76 1020.4 242.126 1022.13 242.155C1023.56 242.155 1024.91 241.921 1026.17 241.452C1027.43 240.954 1028.48 240.222 1029.33 239.255C1030.21 238.259 1030.75 236.999 1030.96 235.476ZM1090.69 210.383L1084.15 248H1076.59L1084.85 200.451H1091.97L1090.69 210.383ZM1087.22 222.468L1083.97 222.38C1084.26 219.772 1084.81 217.121 1085.6 214.426C1086.39 211.701 1087.5 209.196 1088.94 206.911C1090.37 204.626 1092.2 202.81 1094.43 201.462C1096.66 200.085 1099.35 199.455 1102.52 199.572C1104.8 199.631 1106.66 200.173 1108.1 201.198C1109.53 202.224 1110.63 203.557 1111.39 205.197C1112.15 206.809 1112.64 208.596 1112.84 210.559C1113.05 212.492 1113.05 214.411 1112.84 216.315L1107.57 248H1099.97L1105.2 216.667C1105.37 215.056 1105.36 213.474 1105.15 211.921C1104.95 210.368 1104.39 209.064 1103.48 208.01C1102.6 206.955 1101.18 206.398 1099.22 206.34C1097.05 206.252 1095.25 206.721 1093.81 207.746C1092.38 208.742 1091.21 210.075 1090.3 211.745C1089.42 213.386 1088.75 215.158 1088.28 217.062C1087.81 218.967 1087.46 220.769 1087.22 222.468ZM1112.71 217.941L1107.44 219.567C1107.7 217.165 1108.27 214.777 1109.15 212.404C1110.03 210.002 1111.2 207.819 1112.67 205.856C1114.13 203.894 1115.92 202.341 1118.03 201.198C1120.14 200.026 1122.57 199.47 1125.32 199.528C1127.78 199.587 1129.78 200.129 1131.3 201.154C1132.82 202.15 1133.97 203.469 1134.73 205.109C1135.52 206.75 1136.02 208.581 1136.22 210.603C1136.43 212.624 1136.41 214.675 1136.18 216.755L1130.95 248H1123.39L1128.57 216.623C1128.75 214.982 1128.74 213.386 1128.53 211.833C1128.35 210.251 1127.81 208.947 1126.9 207.922C1126 206.896 1124.53 206.369 1122.51 206.34C1120.96 206.34 1119.61 206.691 1118.47 207.395C1117.32 208.068 1116.36 208.991 1115.57 210.163C1114.81 211.306 1114.19 212.565 1113.72 213.942C1113.28 215.29 1112.94 216.623 1112.71 217.941ZM1171.36 239.87L1175.54 213.986C1175.68 212.463 1175.59 211.13 1175.27 209.987C1174.98 208.815 1174.36 207.893 1173.43 207.219C1172.52 206.545 1171.23 206.208 1169.56 206.208C1168.04 206.179 1166.67 206.486 1165.47 207.131C1164.27 207.746 1163.28 208.61 1162.48 209.724C1161.72 210.837 1161.2 212.126 1160.9 213.591L1153.39 213.635C1153.59 211.496 1154.19 209.562 1155.19 207.834C1156.22 206.076 1157.52 204.582 1159.1 203.352C1160.68 202.092 1162.44 201.14 1164.37 200.495C1166.31 199.821 1168.31 199.499 1170.39 199.528C1173.38 199.558 1175.87 200.188 1177.87 201.418C1179.86 202.619 1181.29 204.318 1182.17 206.516C1183.08 208.684 1183.39 211.232 1183.09 214.162L1179.23 237.629C1178.96 239.299 1178.86 240.91 1178.92 242.463C1178.98 244.016 1179.05 245.612 1179.14 247.253L1179.05 248L1171.45 248.044C1171.16 246.696 1171.02 245.334 1171.05 243.957C1171.08 242.58 1171.19 241.218 1171.36 239.87ZM1176.11 219.172L1175.18 224.885L1170.35 224.841C1168.8 224.841 1167.25 225.017 1165.69 225.368C1164.17 225.72 1162.75 226.276 1161.43 227.038C1160.14 227.771 1159.06 228.752 1158.18 229.982C1157.33 231.184 1156.8 232.663 1156.6 234.421C1156.42 235.856 1156.46 237.146 1156.73 238.288C1157.02 239.401 1157.59 240.295 1158.44 240.969C1159.32 241.613 1160.55 241.936 1162.13 241.936C1163.77 241.936 1165.36 241.569 1166.88 240.837C1168.4 240.104 1169.71 239.108 1170.79 237.849C1171.9 236.589 1172.64 235.153 1172.99 233.542L1174.17 237.233C1173.82 238.757 1173.22 240.236 1172.37 241.672C1171.55 243.078 1170.54 244.338 1169.34 245.451C1168.14 246.535 1166.79 247.385 1165.3 248C1163.83 248.645 1162.26 248.967 1160.59 248.967C1157.93 248.967 1155.69 248.366 1153.87 247.165C1152.05 245.964 1150.71 244.353 1149.83 242.331C1148.95 240.28 1148.6 237.966 1148.77 235.388C1148.92 232.634 1149.58 230.231 1150.75 228.181C1151.95 226.13 1153.51 224.445 1155.41 223.127C1157.31 221.779 1159.44 220.783 1161.78 220.139C1164.15 219.465 1166.62 219.128 1169.16 219.128L1176.11 219.172ZM1168.15 193.42L1178.48 180.5H1188.59L1175.14 193.42H1168.15ZM1218.63 235.476C1218.84 234.011 1218.57 232.78 1217.84 231.784C1217.14 230.759 1216.2 229.895 1215.03 229.191C1213.88 228.488 1212.76 227.858 1211.64 227.302C1210.12 226.54 1208.64 225.749 1207.21 224.929C1205.8 224.108 1204.54 223.171 1203.43 222.116C1202.31 221.062 1201.45 219.831 1200.83 218.425C1200.22 217.019 1199.97 215.349 1200.09 213.415C1200.2 211.306 1200.72 209.387 1201.62 207.658C1202.53 205.93 1203.73 204.465 1205.23 203.264C1206.72 202.033 1208.41 201.096 1210.28 200.451C1212.16 199.807 1214.12 199.514 1216.17 199.572C1219.01 199.631 1221.44 200.29 1223.46 201.55C1225.52 202.78 1227.05 204.479 1228.08 206.647C1229.13 208.786 1229.6 211.247 1229.49 214.03L1221.97 213.986C1222.03 212.639 1221.84 211.394 1221.4 210.251C1220.99 209.079 1220.32 208.142 1219.38 207.438C1218.44 206.706 1217.22 206.325 1215.73 206.296C1214.32 206.296 1213.04 206.574 1211.86 207.131C1210.69 207.688 1209.72 208.479 1208.96 209.504C1208.23 210.529 1207.76 211.745 1207.56 213.151C1207.41 214.177 1207.5 215.07 1207.82 215.832C1208.17 216.564 1208.67 217.209 1209.31 217.766C1209.96 218.322 1210.68 218.82 1211.47 219.26C1212.29 219.67 1213.09 220.065 1213.88 220.446C1215.99 221.472 1218.02 222.585 1219.95 223.786C1221.88 224.987 1223.44 226.467 1224.61 228.225C1225.81 229.953 1226.34 232.165 1226.19 234.86C1226.04 237.116 1225.5 239.123 1224.56 240.881C1223.63 242.639 1222.38 244.118 1220.83 245.319C1219.3 246.521 1217.56 247.429 1215.6 248.044C1213.67 248.659 1211.61 248.938 1209.45 248.879C1206.52 248.82 1203.94 248.146 1201.71 246.857C1199.51 245.568 1197.82 243.796 1196.61 241.54C1195.44 239.284 1194.92 236.677 1195.03 233.718L1202.68 233.762C1202.62 235.373 1202.83 236.809 1203.29 238.068C1203.76 239.328 1204.52 240.324 1205.58 241.057C1206.66 241.76 1208.07 242.126 1209.8 242.155C1211.23 242.155 1212.58 241.921 1213.84 241.452C1215.1 240.954 1216.16 240.222 1217 239.255C1217.88 238.259 1218.43 236.999 1218.63 235.476Z" fill="#EF2B41"/>
<path d="M741.509 384.916C741.802 382.016 741.26 379.481 739.883 377.313C738.535 375.146 736.162 373.227 732.764 371.557C729.365 369.857 726.802 368.144 725.073 366.415C723.374 364.687 722.158 362.753 721.426 360.614C720.693 358.476 720.43 356.015 720.635 353.231C720.986 348.515 722.583 344.618 725.425 341.542C728.267 338.437 731.885 336.635 736.279 336.137L737.861 327.26H741.992L740.41 336.312C743.428 336.869 745.815 338.334 747.573 340.707C749.331 343.051 750.327 346.024 750.562 349.628C750.708 351.767 750.679 353.847 750.474 355.868H745.684C745.83 354.345 745.845 352.719 745.728 350.99C745.522 347.943 744.702 345.526 743.267 343.739C741.831 341.923 739.868 340.971 737.378 340.883C734.155 340.824 731.46 341.923 729.292 344.179C727.124 346.435 725.835 349.438 725.425 353.188C725.132 356.176 725.63 358.71 726.919 360.79C728.237 362.841 730.684 364.76 734.258 366.547C737.832 368.305 740.483 370.092 742.212 371.908C745.405 375.219 746.797 379.511 746.387 384.784C746.035 389.501 744.424 393.383 741.553 396.43C738.682 399.447 734.888 401.249 730.171 401.835L728.721 410.141H724.678L726.172 401.791C721.953 401.205 718.774 399.213 716.636 395.814C714.526 392.416 713.721 388.007 714.219 382.587H719.053C718.672 387.157 719.331 390.731 721.03 393.31C722.729 395.858 725.249 397.162 728.589 397.221C732.017 397.279 734.932 396.137 737.334 393.793C739.736 391.449 741.128 388.49 741.509 384.916ZM793.304 336.796L782.406 401H772.387L781.307 349.892L767.992 355.121L769.618 345.717L791.854 336.796H793.304ZM842.903 336.532H844.265L843.386 345.409L842.991 345.365C839.71 345.307 836.868 345.907 834.465 347.167C832.092 348.397 830.086 350.082 828.445 352.221C826.804 354.33 825.486 356.732 824.49 359.428C823.494 362.094 822.805 364.862 822.424 367.733L821.018 377.885C820.93 378.91 820.857 380.258 820.798 381.928C820.74 383.598 820.828 385.297 821.062 387.025C821.326 388.725 821.853 390.175 822.644 391.376C823.435 392.548 824.651 393.178 826.292 393.266C827.903 393.324 829.28 392.914 830.422 392.035C831.594 391.127 832.546 389.97 833.279 388.563C834.011 387.157 834.568 385.692 834.949 384.169C835.33 382.616 835.579 381.21 835.696 379.95C835.784 378.925 835.813 377.694 835.784 376.259C835.754 374.823 835.564 373.417 835.213 372.04C834.89 370.663 834.319 369.506 833.499 368.568C832.678 367.631 831.55 367.147 830.115 367.118C828.269 367.03 826.672 367.543 825.325 368.656C823.977 369.74 822.893 371.103 822.073 372.743C821.282 374.354 820.711 375.937 820.359 377.489L816.799 376.039C817.21 373.93 817.839 371.835 818.689 369.755C819.539 367.646 820.623 365.741 821.941 364.042C823.289 362.313 824.9 360.951 826.775 359.955C828.65 358.93 830.803 358.461 833.235 358.549C835.989 358.607 838.23 359.325 839.959 360.702C841.687 362.05 842.991 363.793 843.87 365.932C844.778 368.07 845.349 370.355 845.584 372.787C845.818 375.219 845.847 377.533 845.671 379.73C845.437 382.455 844.822 385.15 843.826 387.816C842.859 390.453 841.541 392.855 839.871 395.023C838.23 397.162 836.209 398.861 833.806 400.121C831.433 401.381 828.723 401.967 825.676 401.879C822.454 401.82 819.817 400.985 817.766 399.374C815.745 397.763 814.192 395.697 813.108 393.178C812.024 390.629 811.336 387.919 811.043 385.048C810.779 382.147 810.794 379.408 811.087 376.83L811.702 372.392C812.288 367.968 813.298 363.632 814.734 359.384C816.17 355.136 818.118 351.298 820.579 347.87C823.04 344.413 826.101 341.674 829.763 339.652C833.425 337.602 837.805 336.562 842.903 336.532ZM857.213 395.814C857.184 394.057 857.741 392.592 858.883 391.42C860.055 390.248 861.52 389.647 863.278 389.618C865.006 389.589 866.427 390.116 867.54 391.2C868.683 392.284 869.254 393.69 869.254 395.419C869.284 397.206 868.712 398.671 867.54 399.813C866.398 400.927 864.948 401.513 863.19 401.571C861.52 401.601 860.099 401.088 858.927 400.033C857.785 398.949 857.213 397.543 857.213 395.814ZM893.145 392.519H893.628C896.851 392.577 899.619 392.064 901.934 390.98C904.278 389.896 906.24 388.388 907.822 386.454C909.434 384.491 910.694 382.235 911.602 379.687C912.539 377.138 913.213 374.428 913.623 371.557L915.161 360.351C915.249 359.384 915.322 358.065 915.381 356.396C915.469 354.696 915.396 352.968 915.161 351.21C914.927 349.452 914.414 347.943 913.623 346.684C912.862 345.424 911.704 344.765 910.152 344.706C908.511 344.647 907.134 345.087 906.021 346.024C904.907 346.962 903.999 348.192 903.296 349.716C902.593 351.21 902.066 352.763 901.714 354.374C901.363 355.956 901.128 357.348 901.011 358.549C900.894 359.574 900.835 360.819 900.835 362.284C900.864 363.72 901.026 365.155 901.319 366.591C901.641 367.997 902.197 369.184 902.988 370.15C903.779 371.117 904.922 371.615 906.416 371.645C907.822 371.703 909.068 371.381 910.152 370.678C911.236 369.945 912.173 368.993 912.964 367.821C913.755 366.649 914.414 365.419 914.942 364.13C915.469 362.841 915.864 361.64 916.128 360.526L919.688 361.845C919.424 363.866 918.882 365.946 918.062 368.085C917.271 370.224 916.187 372.201 914.81 374.018C913.433 375.834 911.807 377.313 909.932 378.456C908.057 379.569 905.962 380.097 903.648 380.038C900.894 379.979 898.638 379.276 896.88 377.929C895.152 376.581 893.819 374.838 892.881 372.699C891.944 370.531 891.343 368.231 891.079 365.8C890.845 363.368 890.83 361.054 891.035 358.856C891.299 356.132 891.9 353.422 892.837 350.727C893.775 348.031 895.064 345.57 896.704 343.344C898.374 341.088 900.396 339.301 902.769 337.982C905.142 336.664 907.866 336.034 910.943 336.093C914.253 336.181 916.904 337.089 918.897 338.817C920.918 340.546 922.398 342.743 923.335 345.409C924.302 348.046 924.873 350.858 925.049 353.847C925.254 356.806 925.21 359.574 924.917 362.152L924.434 365.888C923.936 369.491 923.189 373.021 922.193 376.479C921.226 379.906 919.937 383.129 918.325 386.146C916.714 389.164 914.737 391.815 912.393 394.101C910.078 396.386 907.324 398.188 904.131 399.506C900.967 400.795 897.32 401.454 893.189 401.483H892.31L893.145 392.519ZM941.776 392.519H942.26C945.482 392.577 948.251 392.064 950.565 390.98C952.909 389.896 954.872 388.388 956.454 386.454C958.065 384.491 959.325 382.235 960.233 379.687C961.171 377.138 961.845 374.428 962.255 371.557L963.793 360.351C963.881 359.384 963.954 358.065 964.013 356.396C964.101 354.696 964.027 352.968 963.793 351.21C963.559 349.452 963.046 347.943 962.255 346.684C961.493 345.424 960.336 344.765 958.783 344.706C957.143 344.647 955.766 345.087 954.652 346.024C953.539 346.962 952.631 348.192 951.928 349.716C951.225 351.21 950.697 352.763 950.346 354.374C949.994 355.956 949.76 357.348 949.643 358.549C949.525 359.574 949.467 360.819 949.467 362.284C949.496 363.72 949.657 365.155 949.95 366.591C950.272 367.997 950.829 369.184 951.62 370.15C952.411 371.117 953.554 371.615 955.048 371.645C956.454 371.703 957.699 371.381 958.783 370.678C959.867 369.945 960.805 368.993 961.596 367.821C962.387 366.649 963.046 365.419 963.573 364.13C964.101 362.841 964.496 361.64 964.76 360.526L968.319 361.845C968.056 363.866 967.514 365.946 966.693 368.085C965.902 370.224 964.818 372.201 963.441 374.018C962.064 375.834 960.438 377.313 958.563 378.456C956.688 379.569 954.594 380.097 952.279 380.038C949.525 379.979 947.27 379.276 945.512 377.929C943.783 376.581 942.45 374.838 941.513 372.699C940.575 370.531 939.975 368.231 939.711 365.8C939.477 363.368 939.462 361.054 939.667 358.856C939.931 356.132 940.531 353.422 941.469 350.727C942.406 348.031 943.695 345.57 945.336 343.344C947.006 341.088 949.027 339.301 951.4 337.982C953.773 336.664 956.498 336.034 959.574 336.093C962.885 336.181 965.536 337.089 967.528 338.817C969.55 340.546 971.029 342.743 971.967 345.409C972.934 348.046 973.505 350.858 973.681 353.847C973.886 356.806 973.842 359.574 973.549 362.152L973.065 365.888C972.567 369.491 971.82 373.021 970.824 376.479C969.857 379.906 968.568 383.129 966.957 386.146C965.346 389.164 963.368 391.815 961.024 394.101C958.71 396.386 955.956 398.188 952.763 399.506C949.599 400.795 945.951 401.454 941.82 401.483H940.941L941.776 392.519ZM990.408 392.519H990.891C994.114 392.577 996.883 392.064 999.197 390.98C1001.54 389.896 1003.5 388.388 1005.09 386.454C1006.7 384.491 1007.96 382.235 1008.87 379.687C1009.8 377.138 1010.48 374.428 1010.89 371.557L1012.42 360.351C1012.51 359.384 1012.59 358.065 1012.64 356.396C1012.73 354.696 1012.66 352.968 1012.42 351.21C1012.19 349.452 1011.68 347.943 1010.89 346.684C1010.12 345.424 1008.97 344.765 1007.41 344.706C1005.77 344.647 1004.4 345.087 1003.28 346.024C1002.17 346.962 1001.26 348.192 1000.56 349.716C999.856 351.21 999.329 352.763 998.977 354.374C998.626 355.956 998.391 357.348 998.274 358.549C998.157 359.574 998.098 360.819 998.098 362.284C998.128 363.72 998.289 365.155 998.582 366.591C998.904 367.997 999.461 369.184 1000.25 370.15C1001.04 371.117 1002.19 371.615 1003.68 371.645C1005.09 371.703 1006.33 371.381 1007.41 370.678C1008.5 369.945 1009.44 368.993 1010.23 367.821C1011.02 366.649 1011.68 365.419 1012.2 364.13C1012.73 362.841 1013.13 361.64 1013.39 360.526L1016.95 361.845C1016.69 363.866 1016.15 365.946 1015.33 368.085C1014.53 370.224 1013.45 372.201 1012.07 374.018C1010.7 375.834 1009.07 377.313 1007.2 378.456C1005.32 379.569 1003.23 380.097 1000.91 380.038C998.157 379.979 995.901 379.276 994.143 377.929C992.415 376.581 991.082 374.838 990.144 372.699C989.207 370.531 988.606 368.231 988.343 365.8C988.108 363.368 988.094 361.054 988.299 358.856C988.562 356.132 989.163 353.422 990.1 350.727C991.038 348.031 992.327 345.57 993.968 343.344C995.638 341.088 997.659 339.301 1000.03 337.982C1002.41 336.664 1005.13 336.034 1008.21 336.093C1011.52 336.181 1014.17 337.089 1016.16 338.817C1018.18 340.546 1019.66 342.743 1020.6 345.409C1021.57 348.046 1022.14 350.858 1022.31 353.847C1022.52 356.806 1022.47 359.574 1022.18 362.152L1021.7 365.888C1021.2 369.491 1020.45 373.021 1019.46 376.479C1018.49 379.906 1017.2 383.129 1015.59 386.146C1013.98 389.164 1012 391.815 1009.66 394.101C1007.34 396.386 1004.59 398.188 1001.39 399.506C998.23 400.795 994.583 401.454 990.452 401.483H989.573L990.408 392.519Z" fill="black"/>
</g>
<defs>
<clipPath id="clip0_100_3">
<rect width="1420" height="474" fill="white"/>
</clipPath>
</defs>
</svg>
